<svg width="80" height="80" viewBox="0 0 80 80" fill="none" xmlns="http://www.w3.org/2000/svg">
<path d="M14.7551 68.0025L9.14014 5H70.8601L65.2376 67.9925L39.9626 75L14.7551 68.0025Z" fill="#1572B6"/>
<path d="M40 69.6451L60.425 63.9826L65.23 10.1526H40V69.6451Z" fill="#33A9DC"/>
<path d="M40 32.9774H50.225L50.93 25.0649H40V17.3374H40.0275H59.375L59.19 19.4099L57.2925 40.7049H40V32.9774Z" fill="white"/>
<path d="M40.0476 53.0449L40.0126 53.0549L31.4076 50.7299L30.8576 44.5674H26.6751H23.1001L24.1826 56.6999L40.0101 61.0949L40.0476 61.0849V53.0449Z" fill="#EBEBEB"/>
<path d="M49.5675 40.3774L48.6375 50.7249L40.02 53.0499V61.0899L55.86 56.6999L55.9775 55.3949L57.32 40.3774H49.5675Z" fill="white"/>
<path d="M40.0274 17.3374V22.1374V25.0449V25.0649H21.3874H21.3624L21.2074 23.3274L20.8549 19.4099L20.6699 17.3374H40.0274Z" fill="#EBEBEB"/>
<path d="M40 32.9775V37.7775V40.685V40.705H31.5275H31.5025L31.3475 38.9675L30.9975 35.05L30.8125 32.9775H40Z" fill="#EBEBEB"/>
</svg>
