<svg width="80" height="80" viewBox="0 0 80 80" fill="none" xmlns="http://www.w3.org/2000/svg">
<path d="M20 79.9999C31.04 79.9999 40 74.0266 40 66.6666V53.3333H20C8.96 53.3333 0 59.3066 0 66.6666C0 74.0266 8.96 79.9999 20 79.9999Z" fill="#0ACF83"/>
<path d="M0 40.0001C0 32.6401 8.96 26.6667 20 26.6667H40V53.3334H20C8.96 53.3334 0 47.3601 0 40.0001Z" fill="#A259FF"/>
<path d="M0 13.3333C0 5.97333 8.96 0 20 0H40V26.6667H20C8.96 26.6667 0 20.6933 0 13.3333Z" fill="#F24E1E"/>
<path d="M40 0H60C71.04 0 80 5.97333 80 13.3333C80 20.6933 71.04 26.6667 60 26.6667H40V0Z" fill="#FF7262"/>
<path d="M80 40.0001C80 47.3601 71.04 53.3334 60 53.3334C48.96 53.3334 40 47.3601 40 40.0001C40 32.6401 48.96 26.6667 60 26.6667C71.04 26.6667 80 32.6401 80 40.0001Z" fill="#1ABCFE"/>
</svg>
