<svg width="80" height="80" viewBox="0 0 80 80" fill="none" xmlns="http://www.w3.org/2000/svg">
<path d="M78.4762 36.4388L43.5395 1.51383C43.0617 1.03401 42.4939 0.65329 41.8686 0.393508C41.2433 0.133727 40.573 0 39.8959 0C39.2189 0 38.5485 0.133727 37.9232 0.393508C37.2979 0.65329 36.7301 1.03401 36.2523 1.51383L29.0068 8.78205L38.2094 17.9662C39.2948 17.5986 40.4616 17.5431 41.5769 17.806C42.6923 18.0689 43.7115 18.6398 44.5185 19.4535C45.3255 20.2672 45.888 21.2912 46.1419 22.409C46.3958 23.5267 46.3309 24.6933 45.9547 25.7759L54.8033 34.6269C56.1266 34.1704 57.5662 34.1813 58.8824 34.6578C60.1985 35.1343 61.3117 36.0476 62.0363 37.2455C62.7609 38.4433 63.0532 39.8534 62.8645 41.2407C62.6757 42.628 62.0174 43.9087 60.9991 44.8693C59.9809 45.8299 58.6642 46.4125 57.2687 46.5199C55.8731 46.6273 54.4829 46.253 53.3297 45.4595C52.1765 44.6659 51.3301 43.501 50.9314 42.1589C50.5328 40.8169 50.606 39.3786 51.1389 38.084L42.8732 29.8162V51.5792C44.1262 52.2027 45.1277 53.2369 45.711 54.5094C46.2942 55.7818 46.4239 57.2158 46.0784 58.5723C45.733 59.9289 44.9333 61.126 43.8125 61.9644C42.6918 62.8027 41.3177 63.2316 39.9192 63.1796C38.5206 63.1276 37.1822 62.5978 36.1268 61.6785C35.0714 60.7592 34.3628 59.5059 34.119 58.1275C33.8753 56.749 34.1111 55.3286 34.7872 54.103C35.4633 52.8774 36.5389 51.9205 37.8347 51.3917V29.4413C37.0857 29.1355 36.4047 28.6843 35.8311 28.1137C35.2575 27.5431 34.8026 26.8644 34.4928 26.1169C34.1831 25.3694 34.0245 24.5678 34.0263 23.7586C34.0281 22.9494 34.1903 22.1486 34.5034 21.4025L25.4465 12.3433L1.50301 36.293C0.540558 37.2574 0 38.5644 0 39.9271C0 41.2898 0.540558 42.5968 1.50301 43.5612L36.4605 78.4862C36.9383 78.966 37.5062 79.3467 38.1314 79.6065C38.7567 79.8663 39.4271 80 40.1041 80C40.7812 80 41.4515 79.8663 42.0768 79.6065C42.7021 79.3467 43.2699 78.966 43.7477 78.4862L78.497 43.707C79.4594 42.7426 80 41.4356 80 40.0729C80 38.7102 79.4594 37.4032 78.497 36.4388" fill="#F05133"/>
</svg>
