<svg width="80" height="80" viewBox="0 0 80 80" fill="none" xmlns="http://www.w3.org/2000/svg">
<path d="M40.0025 0.00256311C17.9036 0.00256311 0 18.3726 0 41.0128C0 59.1419 11.4607 74.5079 27.3442 79.9289C29.3518 80.3159 30.0769 79.0472 30.0769 77.9502C30.0769 76.9762 30.0544 74.4002 30.0394 70.981C18.9062 73.4519 16.561 65.4677 16.561 65.4677C14.7384 60.7413 12.1083 59.4725 12.1083 59.4725C8.48803 56.9376 12.3958 56.9914 12.3958 56.9914C16.406 57.2708 18.5162 61.2077 18.5162 61.2077C22.0839 67.4823 27.8767 65.6676 30.1694 64.6116C30.5194 61.969 31.562 60.1517 32.697 59.1393C23.8165 58.1115 14.4784 54.5872 14.4784 38.8726C14.4784 34.3845 16.0285 30.7295 18.5912 27.8588C18.1486 26.8309 16.7936 22.653 18.9437 17.0039C18.9437 17.0039 22.2914 15.9094 29.9444 21.21C33.1471 20.3001 36.5473 19.8464 39.945 19.8233C43.3452 19.8464 46.7429 20.3026 49.9456 21.21C57.5536 15.9094 60.8988 17.0039 60.8988 17.0039C63.0464 22.653 61.6914 26.8284 61.3013 27.8588C63.839 30.7295 65.3891 34.3871 65.3891 38.8726C65.3891 54.623 56.0385 58.0961 47.1479 59.0983C48.538 60.326 49.8406 62.8507 49.8406 66.6826C49.8406 72.1677 49.7906 76.5866 49.7906 77.922C49.7906 78.9882 50.4907 80.2698 52.5508 79.8571C68.5518 74.4925 80 59.1137 80 41.0102C80 18.37 62.0964 0 39.9975 0L40.0025 0.00256311Z" fill="black"/>
</svg>
