<svg width="80" height="80" viewBox="0 0 80 80" fill="none" xmlns="http://www.w3.org/2000/svg">
<path d="M14.7552 68.0025L9.1377 5H70.8627L65.2377 67.9925L39.9627 75L14.7552 68.0025Z" fill="#E44F26"/>
<path d="M40 69.6451L60.425 63.9826L65.23 10.1526H40V69.6451Z" fill="#F1662A"/>
<path d="M40 33.5174H29.775L29.07 25.6049H40V17.8774H39.9725H20.625L20.81 19.9524L22.7075 41.2449H40V33.5174Z" fill="#EBEBEB"/>
<path d="M40.0002 53.5851L39.9652 53.5951L31.3602 51.2726L30.8102 45.1101H26.6277H23.0527L24.1352 57.2401L39.9652 61.6351L40.0002 61.6251V53.5851Z" fill="#EBEBEB"/>
<path d="M39.9727 33.5176V41.2451H49.4877L48.5927 51.2676L39.9727 53.5926V61.6326L55.8152 57.2401L55.9302 55.9351L57.7452 35.5926L57.9352 33.5176H55.8527H39.9727Z" fill="white"/>
<path d="M39.9727 17.8774V22.6774V25.5874V25.6049H58.6127H58.6377L58.7927 23.8699L59.1452 19.9524L59.3302 17.8774H39.9727Z" fill="white"/>
</svg>
