<svg width="80" height="80" viewBox="0 0 80 80" fill="none" xmlns="http://www.w3.org/2000/svg">
<path d="M80 0H0V80H80V0Z" fill="#F1DC50"/>
<path d="M40 36.6665C40 52.4972 40 61.3861 40 63.3332C40 66.2538 38.2571 69.9998 33.3333 69.9998C25.3821 69.9998 25 63.3332 25 63.3332M69.2999 45.0533C67.2996 41.6843 64.648 39.9998 61.3451 39.9998C56.1878 39.9998 53.3333 43.3332 53.3333 46.6665C53.3333 49.9998 55 53.3332 61.6947 54.9998C65.9549 56.0604 70 58.3332 70 63.3332C70 68.3332 65.6151 69.9998 61.6667 69.9998C56.6205 69.9998 53.2872 67.7776 51.6667 63.3332" stroke="#333333" stroke-width="2"/>
</svg>
