<svg width="277" height="170" viewBox="0 0 277 170" fill="none" xmlns="http://www.w3.org/2000/svg">
<path d="M13.0719 56.8711L11.161 52.678L47.2683 36.223L83.492 19.7149L83.7043 20.1808C83.9235 20.456 86.8272 25.1814 92.4154 34.3568C97.742 43.3701 100.607 48.1131 101.01 48.5859L101.222 49.0518L97.0291 50.9627L92.836 52.8736L91.7007 50.9997C88.7017 46.2709 86.0182 42.8519 83.6503 40.7426C79.0138 36.9476 73.2219 36.0705 66.2746 38.1112C64.0719 38.8337 60.0975 40.5043 54.3514 43.123L47.0135 46.467L52.7993 59.1628L58.6381 71.9751L60.7347 71.0196C64.3066 69.3918 66.7132 67.7793 67.9546 66.182C69.027 65.0369 69.6083 63.7404 69.6987 62.2925C69.9719 60.0112 69.2592 57.0069 67.5607 53.2797L66.8706 51.7655L71.0637 49.8546L75.2568 47.9437L83.3782 65.7644L91.4995 83.585L87.3064 85.4959L83.1133 87.4069L82.4233 85.8927C80.7247 82.1655 78.9249 79.6566 77.0239 78.3661C75.8719 77.4844 74.512 77.0726 72.9442 77.1306C70.9243 77.0196 68.1284 77.778 64.5565 79.4058L62.46 80.3613L68.9358 94.5712L75.4647 108.898L83.0356 105.447C88.5488 102.935 91.6371 101.481 92.3005 101.084C99.9731 96.9314 104.396 91.8211 105.57 85.7535C105.746 85.1107 105.843 83.9877 105.863 82.3845C106.022 79.0298 105.279 74.2106 103.635 67.9268C103.082 66.303 102.813 65.3004 102.827 64.9191L102.667 64.5696L106.861 62.6587L111.054 60.7478L111.213 61.0972C111.206 61.2879 112.896 67.3633 116.284 79.3235C119.707 91.3612 121.415 97.4754 121.408 97.6661L121.567 98.0156L84.4115 114.948L47.2559 131.881L45.345 127.688L43.4341 123.495L49.7238 120.629L56.0134 117.762L41.7878 86.5468L27.5621 55.3315L21.2725 58.1979L14.9828 61.0642L13.0719 56.8711Z" fill="#1BE017"/>
<path d="M214.09 25.4713L221.558 27.2642L221.682 27.2941C222.661 27.9679 223.174 28.5737 223.221 29.1114L234.894 112.081L234.994 112.763L241.715 114.377L248.311 115.96L247.236 120.441L246.16 124.922L244.666 124.563L234.022 121.744C227.985 120.207 221.43 118.634 214.357 117.023L202.224 114.374L200.606 113.985L201.682 109.505L202.758 105.024L208.11 106.309L213.492 107.469L212.596 101.33L211.7 95.1918L196.391 91.5164C186.185 89.0662 181.072 87.8825 181.052 87.9655L177.467 93.0285L174.037 97.9969C174.017 98.0799 175.791 98.5497 179.359 99.4063L184.586 100.661L183.51 105.142L182.435 109.623L181.19 109.324L172.04 106.864C166.666 105.486 161.688 104.291 157.104 103.278L149.203 101.644L148.083 101.375L149.159 96.8948L150.234 92.4141L156.831 93.9978L163.552 95.6114L163.95 95.0488L212.019 26.4221C212.367 26.067 213.058 25.75 214.09 25.4713ZM208.103 69.0537L205.838 52.7137L205.714 52.6838L186.843 79.7462L198.667 82.5849L210.396 85.2693L208.103 69.0537Z" fill="#1BE017"/>
</svg>
