<svg width="80" height="80" viewBox="0 0 80 80" fill="none" xmlns="http://www.w3.org/2000/svg">
<path d="M65.7761 25.9295C64.9462 25.6084 64.0862 25.3047 63.2008 25.0174C63.3463 24.3498 63.4799 23.6909 63.5986 23.0432C65.5481 12.4074 64.2735 3.83909 59.921 1.01805C55.7476 -1.68695 48.9223 1.13345 42.029 7.87603C41.3662 8.52439 40.7015 9.21085 40.037 9.93027C39.5943 9.45428 39.1523 8.9943 38.7114 8.55432C31.4871 1.34472 24.2458 -1.69351 19.8977 1.13569C15.7282 3.84854 14.4935 11.9035 16.2483 21.9831C16.4177 22.9567 16.6158 23.951 16.8398 24.9618C15.815 25.2888 14.8256 25.6374 13.8789 26.0082C5.40917 29.3272 0 34.5288 0 39.9243C0 45.4967 5.80674 51.086 14.6286 54.475C15.3248 54.7425 16.0472 54.9954 16.7917 55.2354C16.55 56.3287 16.3398 57.4001 16.1634 58.4451C14.4902 68.3498 15.7969 76.2144 19.9552 78.9102C24.2504 81.6941 31.4589 78.8325 38.4782 71.9363C39.033 71.3912 39.5897 70.8131 40.1475 70.2071C40.8705 70.9896 41.5923 71.7302 42.3103 72.4248C49.1093 79.0008 55.8244 81.6561 59.9789 78.9529C64.2698 76.161 65.6643 67.7124 63.8538 57.4334C63.7155 56.6483 63.5546 55.8463 63.3739 55.0301C63.8802 54.8619 64.3771 54.6882 64.8617 54.5077C74.0329 51.0924 80 45.5711 80 39.9243C80 34.5093 74.4164 29.2726 65.7761 25.9295ZM63.7869 50.8616C63.3494 51.0244 62.9006 51.1817 62.4432 51.3342C61.4308 47.7317 60.0643 43.9009 58.3921 39.943C59.9878 36.0794 61.3015 32.2976 62.2856 28.7184C63.1039 28.9845 63.8982 29.2653 64.6636 29.5615C72.0667 32.4259 76.5824 36.661 76.5824 39.9243C76.5824 43.4002 71.7055 47.9125 63.7869 50.8616ZM60.5012 58.1794C61.3017 62.7246 61.4161 66.8341 60.8858 70.0466C60.4093 72.9333 59.4511 74.8579 58.2664 75.6287C55.7452 77.2689 50.3537 75.1368 44.5391 69.513C43.8725 68.8683 43.2011 68.1799 42.5276 67.4514C44.7818 64.6805 47.0346 61.4591 49.2334 57.8815C53.1008 57.4958 56.7547 56.8652 60.0681 56.0043C60.2313 56.7442 60.3763 57.4699 60.5012 58.1794ZM27.2738 75.3452C24.8106 76.323 22.8488 76.351 21.6629 75.5824C19.1394 73.9465 18.0904 67.6319 19.5213 59.1614C19.6852 58.1914 19.8803 57.1949 20.1052 56.1764C23.3823 56.9909 27.0094 57.577 30.886 57.9302C33.0996 61.431 35.4176 64.6488 37.7535 67.4663C37.2432 68.0201 36.7348 68.5473 36.2293 69.044C33.1254 72.0935 30.015 74.257 27.2738 75.3452ZM15.7339 50.8403C11.8331 49.3418 8.61158 47.3941 6.40339 45.2688C4.41921 43.3589 3.41743 41.4628 3.41743 39.9243C3.41743 36.6501 7.76046 32.4739 15.0039 29.6354C15.8827 29.291 16.8028 28.9664 17.7576 28.6615C18.7586 32.3216 20.0718 36.1482 21.6566 40.0177C20.0513 43.9447 18.7195 47.8323 17.7086 51.5352C17.0279 51.3153 16.3685 51.0839 15.7339 50.8403ZM19.6022 21.2455C18.0988 12.6095 19.0973 6.09484 21.6099 4.46009C24.2863 2.71858 30.2045 5.2016 36.4422 11.4267C36.8409 11.8246 37.2412 12.2411 37.6426 12.6719C35.3182 15.4771 33.0215 18.6708 30.8275 22.1509C27.0651 22.5428 23.4635 23.1725 20.1522 24.0156C19.944 23.0744 19.7596 22.1496 19.6022 21.2455ZM54.1106 30.8227C53.319 29.2859 52.5063 27.7854 51.6779 26.3259C54.2304 26.6886 56.6759 27.17 58.9725 27.7592C58.283 30.2428 57.4236 32.8397 56.412 35.5018C55.6864 33.9533 54.9189 32.392 54.1106 30.8227ZM40.0382 15.4171C41.6145 17.3366 43.1932 19.4796 44.7459 21.8049C43.1812 21.7218 41.5971 21.6786 40 21.6786C38.4179 21.6786 36.8456 21.7208 35.2906 21.8025C36.8449 19.4989 38.4372 17.3587 40.0382 15.4171ZM25.8756 30.8493C25.0849 32.3904 24.3316 33.9432 23.6173 35.4989C22.6221 32.8461 21.7707 30.2374 21.0752 27.7185C23.3577 27.1444 25.7917 26.675 28.328 26.3192C27.4878 27.7922 26.6685 29.3037 25.8756 30.8489V30.8493ZM28.401 53.8033C25.7806 53.4747 23.31 53.0295 21.028 52.4712C21.7346 49.9074 22.6048 47.243 23.6211 44.5331C24.3373 46.0876 25.0935 47.6411 25.8891 49.1855H25.8893C26.6997 50.759 27.5392 52.3003 28.401 53.8033ZM40.1327 64.7022C38.5129 62.7379 36.8973 60.5651 35.3193 58.2279C36.8511 58.2954 38.4128 58.33 40 58.33C41.6306 58.33 43.2426 58.2887 44.8292 58.2093C43.2713 60.5886 41.6984 62.7648 40.1327 64.7022ZM56.4447 44.3949C57.5139 47.1342 58.4153 49.7846 59.131 52.3048C56.8115 52.8995 54.3071 53.3785 51.6685 53.7345C52.4989 52.2553 53.3187 50.7291 54.1243 49.1591C54.9392 47.5708 55.713 45.9801 56.4447 44.3949ZM51.1639 47.2401C49.9134 49.6772 48.6295 52.0037 47.3261 54.1997C44.9522 54.3905 42.4997 54.4888 40 54.4888C37.5104 54.4888 35.0888 54.4019 32.7569 54.2318C31.401 52.0069 30.0892 49.6735 28.8466 47.2611H28.8469C27.6076 44.8552 26.467 42.429 25.4334 40.0164C26.4667 37.5983 27.6043 35.1693 28.8365 32.7678L28.8362 32.7683C30.0717 30.3603 31.3719 28.0383 32.7153 25.8274C35.0945 25.6252 37.5342 25.5198 39.9999 25.5198H40C42.4767 25.5198 44.9196 25.626 47.2981 25.8299C48.621 28.0247 49.9124 30.3392 51.1527 32.7475C52.4071 35.1828 53.5594 37.5955 54.6014 39.9619C53.5625 42.3689 52.4128 44.8059 51.1639 47.2401ZM58.214 4.34581C60.8929 6.08219 61.9347 13.085 60.2515 22.2679C60.1442 22.8538 60.0233 23.4506 59.892 24.0555C56.573 23.1947 52.9688 22.5542 49.1954 22.1563C46.9972 18.6379 44.7192 15.4393 42.4327 12.6702C43.0475 12.0055 43.6614 11.3717 44.2727 10.7736C50.1788 4.99657 55.6989 2.7157 58.214 4.34581ZM40 31.895C43.9453 31.895 47.1437 35.4898 47.1437 39.9243C47.1437 44.3586 43.9453 47.9535 40 47.9535C36.0547 47.9535 32.8563 44.3586 32.8563 39.9243C32.8563 35.4898 36.0547 31.895 40 31.895Z" fill="#00D8FF"/>
</svg>
