<svg width="80" height="80" viewBox="0 0 80 80" fill="none" xmlns="http://www.w3.org/2000/svg">
<path d="M68.8863 45.9889C66.0953 46.0084 63.6697 46.9047 61.6386 48.2296C60.8933 46.2617 60.1481 44.508 60.0166 43.2221C59.8705 41.7217 59.6951 40.806 59.8705 39.0134C60.0458 37.2208 60.8349 34.6683 60.8203 34.4735C60.8057 34.2786 60.6449 33.3628 59.0376 33.3433C57.4302 33.3239 56.042 33.7525 55.8813 34.3176C55.7206 34.8826 55.4137 36.1686 55.2091 37.4936C54.9315 39.442 51.9944 46.3981 50.314 50.0417C49.7734 48.6193 49.3058 47.3723 49.2035 46.3786C49.0574 44.8782 48.882 43.9625 49.0574 42.1699C49.2327 40.3773 50.0218 37.8248 50.0072 37.63C49.9925 37.4351 49.8318 36.5193 48.2245 36.4999C46.6171 36.4804 45.2289 36.909 45.0682 37.4741C44.9075 38.0391 44.7321 39.3641 44.396 40.6501C44.06 41.9361 40.1585 53.5489 39.1356 56.5495C38.6096 58.0888 38.1566 59.3164 37.8351 60.1542C37.8351 60.1542 37.8205 60.2127 37.7767 60.3101C37.499 61.031 37.3383 61.4207 37.3383 61.4207C37.3383 61.4207 37.3383 61.4207 37.3383 61.4402C37.1191 61.9663 36.8853 62.4534 36.7684 62.4534C36.6807 62.4534 36.52 61.0505 36.7976 59.141C37.3821 55.1077 38.7703 48.8336 38.7557 48.6193C38.7557 48.5024 39.0187 47.4113 37.8497 46.8462C36.71 46.2811 36.3008 47.2164 36.1985 47.2164C36.0962 47.2164 36.0232 47.5476 36.0232 47.5476C36.0232 47.5476 37.2944 40.4942 33.5975 40.4942C31.2888 40.4942 28.1033 43.865 26.5252 46.9047C25.5315 47.6256 23.4128 49.1649 21.1478 50.8211C20.2857 51.4641 19.3944 52.107 18.5615 52.7111C18.503 52.6331 18.4446 52.5357 18.3861 52.4578C13.9148 46.0863 5.64418 41.5853 5.99488 33.0316C6.12639 29.9141 6.93007 21.7305 21.8785 11.7933C34.182 3.70722 43.9723 5.94795 45.6673 10.9165C48.0929 18.0089 40.4215 31.1806 27.7088 33.09C22.8575 33.811 20.3149 31.3169 19.672 30.3817C18.9998 29.4075 18.8975 29.349 18.6491 29.5438C18.24 29.8361 18.503 30.7129 18.6491 31.2195C19.0291 32.5445 20.5926 34.8826 23.2374 36.0322C25.5754 37.0454 31.2596 37.6105 38.142 34.0643C45.8427 30.0894 51.8629 19.0416 50.0948 9.78643C48.3267 0.394832 36.6369 -2.70322 25.5754 2.53814C18.9998 5.65568 11.869 10.5658 6.74011 16.9568C0.646773 24.5558 -0.31764 31.1611 0.0768928 33.9279C1.49429 43.7481 11.6498 50.1391 15.7121 54.8739C15.5075 55.0297 15.3175 55.1661 15.1568 55.283C13.1257 56.6275 5.38116 62.0247 3.45234 67.7337C1.26049 74.2026 3.80303 78.84 5.48345 79.4635C10.7 81.3924 16.0628 77.9242 18.9414 72.1957C21.82 66.4672 21.4693 59.0241 20.1396 55.6143C20.125 55.5753 20.1104 55.5363 20.0811 55.4974C20.6072 55.0882 21.1478 54.6595 21.6739 54.2504C22.7114 53.432 23.7342 52.6721 24.611 52.0486C24.1141 53.8607 23.7488 56.0235 23.5735 59.141C23.3543 62.8041 24.4795 67.5584 25.9553 69.4289C26.6128 70.2472 27.3873 70.2667 27.8841 70.2667C29.6084 70.2667 30.3828 68.3572 31.245 66.097C32.297 63.3302 33.2468 60.1152 33.2468 60.1152C33.2468 60.1152 32.0632 68.8054 35.2779 68.8054C36.4469 68.8054 37.6305 66.779 38.1566 65.7463V65.7658C38.1566 65.7658 38.1858 65.7073 38.2442 65.5709C38.3611 65.3176 38.4342 65.1617 38.4342 65.1617V65.1228C38.9018 64.0316 39.9539 61.5571 41.5174 57.4458C43.5339 52.146 45.4773 45.5212 45.4773 45.5212C45.4773 45.5212 45.6527 47.1385 46.2518 49.8273C46.6025 51.4056 47.3331 53.1397 47.9176 54.8154C47.45 55.6922 47.1578 56.1793 47.1578 56.1793C47.1578 56.1793 47.1578 56.1793 47.1724 56.1988C46.7925 56.8613 46.3833 57.5822 45.9303 58.2837C44.3376 60.8167 42.438 63.7199 42.175 64.5577C41.8681 65.5514 41.9412 66.2724 42.5257 66.8569C42.9494 67.2856 43.7093 67.344 44.4837 67.2856C45.9157 67.1492 46.924 66.6816 47.4208 66.3893C48.1952 66.0191 49.1012 65.454 49.9487 64.6162C51.5122 63.0769 52.462 60.8751 52.3744 57.9719C52.3305 56.3742 51.936 54.7764 51.4538 53.2761C51.5999 53.0033 51.7314 52.7306 51.8775 52.4578C54.347 47.6451 56.2612 42.3647 56.2612 42.3647C56.2612 42.3647 56.4366 43.982 57.0357 46.6708C57.3279 48.0348 57.927 49.5156 58.4531 50.9575C56.1297 53.471 54.6977 56.3937 54.1863 58.3032C53.2657 61.8494 53.9817 63.4471 55.3407 63.8173C55.9544 63.9927 56.8311 63.603 57.4741 63.2328C58.2923 62.882 59.2568 62.278 60.1773 61.3817C61.7408 59.8424 63.2459 57.6991 63.1582 54.7959C63.1144 53.471 62.8514 52.1655 62.4861 50.899C64.4587 49.8079 67.0013 49.2038 70.2452 49.7104C77.2007 50.8016 78.5742 56.5885 78.3112 59.0241C78.0482 61.4597 76.587 62.7846 76.1047 63.1938C75.6225 63.603 75.4618 63.7394 75.5056 64.0316C75.5641 64.4603 75.7979 64.4408 76.207 64.3629C76.7769 64.2265 79.8601 62.3949 79.9916 57.9135C80.2108 52.185 76.1194 45.9304 68.8863 45.9889ZM15.2299 70.1108C12.9211 73.4622 9.70641 74.7287 8.31824 73.657C6.82778 72.5075 7.41227 67.5584 10.2471 64.0122C11.9713 61.8494 14.1924 59.8424 15.6682 58.6149C16.0043 58.3421 16.5011 57.9524 17.1002 57.4653C17.2025 57.3874 17.261 57.3484 17.261 57.3484C17.3779 57.251 17.4948 57.1536 17.6117 57.0561C18.6491 62.1221 17.6555 66.5841 15.2299 70.1108ZM32.034 54.8739C31.2303 57.4848 29.5499 64.168 28.5271 63.7978C27.6503 63.4861 27.1097 58.4201 28.3517 53.4125C28.98 50.899 30.3098 47.8984 31.0842 46.7293C32.3409 44.8588 33.729 44.2353 34.0651 44.9952C34.4889 45.9889 32.5308 53.2372 32.034 54.8739ZM45.9011 63.7199C45.565 63.9537 45.2435 64.1096 45.0974 63.9927C44.9951 63.9147 45.2435 63.603 45.2435 63.603C45.2435 63.603 46.9824 61.1089 47.6692 59.9788C48.0637 59.3164 48.5313 58.537 49.0281 57.6602V57.9135C49.0281 60.8946 46.8655 62.9015 45.9011 63.7199ZM56.5973 60.466C56.3489 60.2321 56.3927 59.4528 57.2256 57.0172C57.5471 56.0624 58.307 54.4647 59.6074 52.9254C59.7536 53.5489 59.8559 54.1529 59.8412 54.718C59.8266 58.4785 57.8101 59.8814 56.5973 60.466Z" fill="#CD6799"/>
</svg>
