<svg width="80" height="80" viewBox="0 0 80 80" fill="none" xmlns="http://www.w3.org/2000/svg">
<path d="M40 0C29.3333 0 22.6667 8.88889 20 26.6667C24 17.7778 28.6667 14.4444 34 16.6667C37.043 17.9346 39.2179 21.6138 41.6253 25.6867C45.5471 32.3212 50.0861 40 60 40C70.6667 40 77.3333 31.1111 80 13.3333C76 22.2222 71.3333 25.5556 66 23.3333C62.957 22.0654 60.7821 18.3862 58.3747 14.3133C54.4529 7.67877 49.9139 0 40 0ZM20 40C9.33333 40 2.66667 48.8889 0 66.6667C4 57.7778 8.66667 54.4444 14 56.6667C17.043 57.9346 19.2179 61.6138 21.6253 65.6867C25.5471 72.3212 30.0861 80 40 80C50.6667 80 57.3333 71.1111 60 53.3333C56 62.2222 51.3333 65.5556 46 63.3333C42.957 62.0654 40.7821 58.3862 38.3747 54.3133C34.4529 47.6788 29.9139 40 20 40Z" fill="url(#paint0_linear_116_58)"/>
<defs>
<linearGradient id="paint0_linear_116_58" x1="-2.22222" y1="25.6" x2="80" y2="54.0444" gradientUnits="userSpaceOnUse">
<stop stop-color="#2298BD"/>
<stop offset="1" stop-color="#0ED7B5"/>
</linearGradient>
</defs>
</svg>
